<svg width="21" height="21" viewBox="0 0 21 21" fill="none" xmlns="http://www.w3.org/2000/svg">
<g clip-path="url(#clip0_1_565)">
<path d="M10.5 20.5C16.0228 20.5 20.5 16.0228 20.5 10.5C20.5 4.97715 16.0228 0.5 10.5 0.5C4.97715 0.5 0.5 4.97715 0.5 10.5C0.5 16.0228 4.97715 20.5 10.5 20.5Z" fill="url(#paint0_linear_1_565)"/>
<path fill-rule="evenodd" clip-rule="evenodd" d="M5.02635 10.3945C7.94156 9.12435 9.88548 8.28702 10.8581 7.88246C13.6352 6.72737 14.2123 6.52672 14.5884 6.52009C14.6711 6.51863 14.8561 6.53913 14.9759 6.63635C15.0771 6.71844 15.1049 6.82934 15.1182 6.90717C15.1316 6.985 15.1481 7.1623 15.135 7.30083C14.9845 8.88207 14.3333 12.7193 14.002 14.4903C13.8618 15.2397 13.5858 15.491 13.3186 15.5155C12.7379 15.569 12.2969 15.1318 11.7345 14.7631C10.8543 14.1861 10.3571 13.827 9.50279 13.264C8.51547 12.6134 9.15551 12.2558 9.71818 11.6714C9.86543 11.5184 12.4241 9.19115 12.4736 8.98002C12.4798 8.95362 12.4856 8.8552 12.4271 8.80322C12.3686 8.75125 12.2823 8.76903 12.22 8.78316C12.1318 8.80319 10.7257 9.73252 8.00198 11.5711C7.60288 11.8452 7.2414 11.9787 6.91752 11.9717C6.56046 11.964 5.87364 11.7698 5.36306 11.6039C4.73681 11.4003 4.23907 11.2927 4.28242 10.9469C4.30499 10.7669 4.55297 10.5827 5.02635 10.3945Z" fill="black"/>
</g>
<defs>
<linearGradient id="paint0_linear_1_565" x1="10.5" y1="0.5" x2="10.5" y2="20.3517" gradientUnits="userSpaceOnUse">
<stop stop-color="#2AABEE"/>
<stop offset="1" stop-color="#229ED9"/>
</linearGradient>
<clipPath id="clip0_1_565">
<rect width="20" height="20" fill="white" transform="translate(0.5 0.5)"/>
</clipPath>
</defs>
</svg>
