<svg width="21" height="21" viewBox="0 0 21 21" fill="none" xmlns="http://www.w3.org/2000/svg">
<path d="M0.5 20.5L1.90583 15.3641C1.03833 13.8608 0.5825 12.1566 0.583333 10.4091C0.585833 4.94582 5.03166 0.5 10.4941 0.5C13.145 0.500833 15.6333 1.53333 17.505 3.40666C19.3758 5.27999 20.4058 7.76998 20.405 10.4183C20.4025 15.8825 15.9566 20.3283 10.4941 20.3283C8.83581 20.3275 7.20165 19.9116 5.75415 19.1216L0.5 20.5ZM5.99749 17.3275C7.39415 18.1566 8.72748 18.6533 10.4908 18.6541C15.0308 18.6541 18.7291 14.9591 18.7316 10.4166C18.7333 5.86499 15.0525 2.175 10.4975 2.17333C5.95415 2.17333 2.25833 5.86832 2.25666 10.41C2.25583 12.2641 2.79916 13.6525 3.71166 15.105L2.87916 18.145L5.99749 17.3275ZM15.4866 12.7741C15.425 12.6708 15.26 12.6091 15.0116 12.485C14.7641 12.3608 13.5466 11.7616 13.3191 11.6791C13.0925 11.5966 12.9275 11.555 12.7616 11.8033C12.5966 12.0508 12.1216 12.6091 11.9775 12.7741C11.8333 12.9391 11.6883 12.96 11.4408 12.8358C11.1933 12.7116 10.395 12.4508 9.44915 11.6066C8.71331 10.95 8.21582 10.1391 8.07165 9.89081C7.92748 9.64331 8.05665 9.50915 8.17998 9.38581C8.29165 9.27498 8.42748 9.09665 8.55165 8.95165C8.67748 8.80832 8.71831 8.70498 8.80165 8.53915C8.88415 8.37415 8.84331 8.22915 8.78082 8.10498C8.71832 7.98165 8.22332 6.76249 8.01748 6.26665C7.81582 5.78416 7.61165 5.84915 7.45998 5.84165L6.98499 5.83332C6.81999 5.83332 6.55165 5.89499 6.32499 6.14332C6.09832 6.39165 5.45832 6.98999 5.45832 8.20915C5.45832 9.42831 6.34582 10.6058 6.46915 10.7708C6.59332 10.9358 8.21498 13.4375 10.6991 14.51C11.29 14.765 11.7516 14.9175 12.1108 15.0316C12.7041 15.22 13.2441 15.1933 13.6708 15.13C14.1466 15.0591 15.1358 14.5308 15.3425 13.9525C15.5491 13.3733 15.5491 12.8775 15.4866 12.7741Z" fill="#25D366"/>
</svg>
