<svg width="20" height="21" viewBox="0 0 20 21" fill="none" xmlns="http://www.w3.org/2000/svg">
<path d="M19.5818 5.65459C19.4687 5.2291 19.2459 4.84077 18.9356 4.52847C18.6253 4.21617 18.2384 3.99084 17.8136 3.87504C16.25 3.45459 10 3.45459 10 3.45459C10 3.45459 3.75 3.45459 2.18636 3.87504C1.76161 3.99084 1.37472 4.21617 1.06441 4.52847C0.754097 4.84077 0.531255 5.2291 0.418182 5.65459C4.96705e-08 7.22504 0 10.5 0 10.5C0 10.5 4.96705e-08 13.775 0.418182 15.3455C0.531255 15.771 0.754097 16.1593 1.06441 16.4716C1.37472 16.7839 1.76161 17.0092 2.18636 17.125C3.75 17.5455 10 17.5455 10 17.5455C10 17.5455 16.25 17.5455 17.8136 17.125C18.2384 17.0092 18.6253 16.7839 18.9356 16.4716C19.2459 16.1593 19.4687 15.771 19.5818 15.3455C20 13.775 20 10.5 20 10.5C20 10.5 20 7.22504 19.5818 5.65459Z" fill="#FF0302"/>
<path d="M7.97461 13.4879V7.51318L13.2019 10.5006L7.97461 13.4879Z" fill="#FEFEFE"/>
</svg>
