<svg width="624" height="45" viewBox="0 0 624 45" fill="none" xmlns="http://www.w3.org/2000/svg">
<path d="M335.929 44.5757C338.419 44.1816 343.058 42.4736 345.012 41.335C348.137 39.3643 350.969 35.0726 351.067 32.1385C351.067 30.0802 350.042 27.6716 348.284 25.9636C346.232 23.9054 343.937 23.6426 342.277 25.2191C340.763 26.7081 341.056 28.0219 343.351 29.9488L345.451 31.6567L344.474 33.2771C342.961 35.8171 340.226 37.1747 336.71 37.1747C331.729 37.1309 328.066 34.8536 325.722 30.3867C324.208 27.4526 324.013 23.5112 325.332 21.2778C327.334 17.9495 333.633 15.3219 339.591 15.3219C343.986 15.3657 347.795 16.2853 355.95 19.2633C369.477 24.2557 370.259 24.4747 376.216 24.4747C382.516 24.4747 384.518 23.8616 392.966 19.3947L397.996 16.6795L402.733 18.9129C409.57 22.1098 413.135 22.9857 420.46 23.2485C428.127 23.555 430.324 23.1609 437.649 20.0078L443.363 17.5554L450.834 20.8836C454.888 22.7229 462.896 26.3578 468.512 28.9416C484.041 36.0799 493.955 39.014 506.065 40.065C518.518 41.2037 525.404 38.9264 548.356 26.2264C566.766 16.0664 569.452 14.9716 578.681 14.2271C594.064 12.9571 607.689 16.8109 620.288 26.0074C624.976 29.4233 625.318 28.854 620.776 25.1316C608.861 15.3657 593.38 10.2419 577.607 10.8112C568.133 11.1616 564.08 12.5629 545.719 21.7595C533.998 27.584 525.55 31.3502 520.764 32.7954C512.756 35.2478 501.963 34.5909 489.169 30.8247C482.674 28.8978 474.763 25.5695 459.332 18.2122L450.102 13.8329L456.157 11.2053C464.459 7.57051 466.754 6.95741 471.442 7.0012C479.695 7.13258 487.899 9.80397 504.649 17.8619C520.178 25.3505 524.476 26.8833 529.994 26.8833C533.51 26.8833 536.977 25.5695 539.956 23.1609C542.789 20.8836 543.619 18.6064 543.375 13.8329C543.13 9.49742 541.958 7.00121 538.979 4.72397C536.684 3.01603 531.801 1.04534 528.969 0.782582C522.229 0.0380983 515.49 3.71672 514.807 8.49017C514.465 10.7236 514.856 12.0812 516.418 13.7016C517.932 15.3219 519.641 15.4533 520.716 14.0957C521.79 12.7381 521.741 12.5629 519.934 11.1178C518.567 9.97914 518.469 9.71638 518.958 8.70914C519.251 8.09604 520.227 7.22017 521.106 6.69466C523.206 5.55603 527.015 5.73121 529.213 7.08879C531.068 8.315 533.217 12.0812 533.217 14.1833C533.217 17.3802 529.652 20.3143 525.843 20.3143C522.522 20.3143 517.395 18.475 504.893 12.8257C488.29 5.29327 479.695 2.79706 470.759 2.79706C468.659 2.79706 465.778 3.10361 464.313 3.49775C461.334 4.28603 453.716 7.6581 448.93 10.2857L445.707 12.0374L441.214 10.5047C432.18 7.43913 424.611 5.86258 416.7 5.55603C408.593 5.20568 402.343 6.56327 391.355 11.1178C381.832 15.0591 377.242 16.154 372.652 15.4971C369.136 14.9715 369.233 15.0153 358.246 11.074C343.742 5.86257 336.856 4.68016 329.336 6.03774C324.306 6.9574 318.153 9.62878 314.735 12.4753L312 14.7088L309.265 12.4753C305.847 9.62878 299.694 6.9574 294.664 6.03774C287.144 4.68015 280.258 5.86257 265.754 11.074C254.767 15.0153 254.864 14.9715 251.348 15.4971C247.979 15.9788 243.926 15.3657 239.14 13.6577C235.819 12.4753 235.38 12.2126 235.917 11.5995C236.454 10.9864 236.454 10.9864 235.77 11.4681C235.087 11.906 234.012 11.6433 229.227 9.80395C219.997 6.2567 217.165 5.6436 209.205 5.6436C200.61 5.6436 192.992 7.00118 183.958 10.1105L180.735 11.2053L177.854 9.67256C173.41 7.26394 166.475 4.28601 163.594 3.49773C162.129 3.10359 159.248 2.79704 157.148 2.79704C148.211 2.79704 139.666 5.29325 123.013 12.8257C110.512 18.475 105.384 20.3143 102.063 20.3143C98.2545 20.3143 94.6896 17.3802 94.6896 14.1833C94.6896 12.0812 96.8383 8.31497 98.694 7.08876C100.891 5.73117 104.701 5.556 106.8 6.69462C107.679 7.22014 108.656 8.096 108.949 8.70911C109.437 9.71635 109.34 9.97911 107.972 11.1177C106.166 12.5629 106.117 12.7381 107.191 14.0957C109.242 16.7233 113.246 13.5264 113.246 9.23463C113.246 5.64359 109.193 2.00876 104.017 1.00151C100.305 0.300824 96.9848 0.782548 92.8828 2.57807C86.8273 5.24945 84.4345 8.88428 84.4345 15.2343C84.4345 19.0005 85.46 21.2777 88.097 23.336C91.027 25.6571 94.4454 26.8833 97.9126 26.8833C103.333 26.8833 107.875 25.3067 122.476 18.256C138.152 10.6798 145.184 8.1398 153.534 7.13256C159.004 6.51946 162.569 7.22015 170.382 10.5046L175.949 12.9133L165.254 17.9933C148.358 25.9636 141.472 28.854 134.831 30.8246C122.037 34.5471 111.244 35.2478 103.236 32.7953C98.4498 31.3502 90.0015 27.584 78.2814 21.7595C59.9199 12.5629 55.8667 11.1615 46.3929 10.8112C30.6196 10.2419 15.1393 15.3657 3.22387 25.1315C-1.31763 28.8539 -0.975833 29.4233 3.71222 26.0074C16.3113 16.8108 29.936 12.957 45.3186 14.227C54.5482 14.9715 57.2341 16.0664 75.6444 26.2264C92.7363 35.6857 100.257 38.8826 108.217 40.1088C114.809 41.116 127.457 39.3643 137.907 36.0798C144.5 33.9778 149.823 31.7443 163.545 25.3067C170.382 22.1098 177.561 18.8691 179.465 18.1246L182.932 16.7233L189.378 19.6136C197.289 23.1171 199.536 23.555 207.496 23.2484C214.381 23.0295 218.044 22.1536 224.197 19.3946L227.957 17.6867L231.717 19.745C233.768 20.8398 236.991 22.3726 238.945 23.1171C242.119 24.3433 242.851 24.4747 247.784 24.4747C253.741 24.4747 254.523 24.2557 268.05 19.2633C276.205 16.2853 280.014 15.3657 284.409 15.3219C290.367 15.3219 296.666 17.9495 298.668 21.2778C299.987 23.5112 299.792 27.4526 298.278 30.3867C295.934 34.8536 292.271 37.1309 287.29 37.1747C283.774 37.1747 281.039 35.8171 279.526 33.2771L278.549 31.6567L280.649 29.9488C282.944 28.0219 283.237 26.7081 281.723 25.2191C280.063 23.6426 277.768 23.9053 275.716 25.9636C272.152 29.5109 272.152 33.7588 275.668 38.3133C279.819 43.7436 290.122 46.1085 298.327 43.5685C303.454 41.9481 308.826 38.6636 311.17 35.6419L312 34.5909L312.83 35.6419C315.174 38.6636 320.595 41.9919 325.478 43.4809C328.506 44.3567 333.731 44.9261 335.929 44.5757ZM409.179 19.964C405.566 18.9567 401.757 17.5553 400.292 16.6357C399.315 16.0226 399.364 15.9788 401.171 15.1467C409.668 11.2491 420.899 11.0302 433.596 14.446C435.891 15.0591 437.894 15.716 438.089 15.8912C438.675 16.3729 430.422 19.964 427.345 20.6209C423.292 21.4091 413.232 21.0588 409.179 19.964ZM201.343 20.7084C198.706 20.3143 193.627 18.2998 189.476 16.0226L187.816 15.1467L191.185 14.2271C204.761 10.636 217.36 11.5557 226.053 16.7671C227.225 17.4677 220.876 19.6574 214.088 20.9274C212.037 21.2778 204.126 21.1902 201.343 20.7084Z" fill="#E1B443"/>
</svg>
